{"title":"Star Wars The Force Awakens 2015 HDTS XviD- INFERNO","uid":13141004,"size":1719327826,"categoryP":"video","categoryS":"movies","magnet":"?xt=urn:btih:34c384371b0118787f20cd94c642dfcb09171ece&amp;dn=Star+Wars+The+Force+Awakens+2015+HDTS+XviD-+INFERNO&amp;tr=udp%3A%2F%2Ftracker.leechers-paradise.org%3A6969&amp;tr=udp%3A%2F%2Fzer0day.ch%3A1337&amp;tr=udp%3A%2F%2Fopen.demonii.com%3A1337&amp;tr=udp%3A%2F%2Ftracker.coppersurfer.tk%3A6969&amp;tr=udp%3A%2F%2Fexodus.desync.com%3A6969","seeders":25,"leechers":8,"uploader":"xxxlavalxxx","files":4,"time":1451979793,"description":"http://extraimago.com/image/5c2\r\n \nhttp://www.imdb.com/title/tt2488496/\r\n\r\n\r\nThree decades after the defeat of the Galactic Empire, a new threat arises. The First Order attempts to rule the galaxy and only a rag-tag group of heroes can stop them, along with the help of the Resistance.\r\n\r\nDirector: J.J. Abrams\r\nWriters: Lawrence Kasdan, J.J. Abrams\r\nStars: Daisy Ridley, John Boyega, Oscar Isaac \r\nGenres: Action | Adventure | Fantasy | Sci-Fi\r\nCountry: USA\r\nLanguage: English\r\n\r\n\r\nSource: CHeWbacca...thanks\r\nLine Audio: Th0ravege...thanks\r\n\r\n\r\n\r\n\r\nFormat : AVI\r\n\r\nFormat/Info : Audio Video Interleave\r\n\r\nFile size : 1.57 GiB\r\n\r\nDuration : 2h 7mn\r\n\r\nOverall bit rate : 1 771 Kbps\r\n\r\nWriting application : VirtualDubMod 1.5.10.2 (build 2540/release)\r\n\r\nWriting library : VirtualDub build 35491/release\r\n\r\nVideo\r\n\r\nID : 0\r\n\r\nFormat : MPEG-4 Visual\r\n\r\nFormat profile : Advanced   \r\n\r\nFormat settings, BVOP : Yes\r\n\r\nFormat settings, QPel : No\r\n\r\nFormat settings, GMC : No warppoints\r\n\r\nFormat settings, Matrix : Default (H.263)\r\n\r\nMuxing mode : Packed bitstream\r\n\r\nCodec ID : XVID\r\n\r\nCodec ID/Hint : XviD\r\n\r\nDuration : 2h 7mn\r\n\r\nBit rate : 1 600 Kbps\r\n\r\nWidth : 720 pixels\r\n\r\nHeight : 320 pixels\r\n\r\nDisplay aspect ratio : 2.25:1\r\n\r\nFrame rate : 29.970 fps\r\n\r\nColor space : YUV\r\n\r\nChroma subsampling : 4:2:0\r\n\r\nBit depth : 8 bits\r\n\r\nScan type : Progressive\r\n\r\nBits/(Pixel*Frame) : 0.232\r\n\r\nStream size : 1.42 GiB (90%)\r\n\r\nWriting library : XviD 1.2.1 (UTC 2008-12-04)\r\n\r\nAudio\r\n\r\nID : 1\r\n\r\nFormat : MPEG Audio\r\n\r\nFormat version : Version 1\r\n\r\nFormat profile : Layer 3\r\n\r\nMode : Joint stereo\r\n\r\nMode extension : MS Stereo\r\n\r\nCodec ID : 55\r\n\r\nCodec ID/Hint : MP3\r\n\r\nDuration : 2h 7mn\r\n\r\nBit rate mode : Constant\r\n\r\nBit rate : 160 Kbps\r\n\r\nChannel(s) : 2 channels\r\n\r\nSampling rate : 44.1 KHz\r\n\r\nStream size : 145 MiB (9%)\r\n\r\nAlignment : Split accross interleaves\r\n\r\nInterleave, duration : 33 ms (1.00 video frame)\r\n\r\nInterleave, preload duration : 500 ms\r\n\r\n\r\nWorkdone:\r\n\r\nFix AR, perspective and rotated the video, adjusted contrast and saturation lower and sharpen up the video some.\r\n\r\nAudio: audio was in good sync, was to flat for me so add some mids and bass to it.\r\n\r\n \nhttp://extraimago.com/image/H0p \nhttp://extraimago.com/image/H0r \nhttp://extraimago.com/image/H0G \nhttp://extraimago.com/image/H0P \nhttp://extraimago.com/image/H0X","torrent":{"xt":"urn:btih:34c384371b0118787f20cd94c642dfcb09171ece","amp;dn":"Star+Wars+The+Force+Awakens+2015+HDTS+XviD-+INFERNO","amp;tr":["udp%3A%2F%2Ftracker.leechers-paradise.org%3A6969","udp%3A%2F%2Fzer0day.ch%3A1337","udp%3A%2F%2Fopen.demonii.com%3A1337","udp%3A%2F%2Ftracker.coppersurfer.tk%3A6969","udp%3A%2F%2Fexodus.desync.com%3A6969"],"infoHash":"34c384371b0118787f20cd94c642dfcb09171ece","infoHashBuffer":{"type":"Buffer","data":[52,195,132,55,27,1,24,120,127,32,205,148,198,66,223,203,9,23,30,206]},"announce":[],"urlList":[]}}